<svg 
          width="21.5" 
          height="22.600711822509766" fill="none" 
          xmlns="http://www.w3.org/2000/svg">
          <path d="M 12.005008697509766 2.004672050476074 C 11.164765357971191 1.3210629224777222 9.956692695617676 1.3331811428070068 9.130332946777344 2.033507823944092 L 1.9418338537216187 8.125648498535156 C 1.6615877747535706 8.363152503967285 1.5 8.711906433105469 1.5 9.079256057739258 L 1.5 19.850711822509766 C 1.5 20.54106903076172 2.0596436262130737 21.100711822509766 2.75 21.100711822509766 L 5.280611038208008 21.100711822509766 C 5.9709672927856445 21.100711822509766 6.530611991882324 20.541067123413086 6.530611991882324 19.850711822509766 L 6.530611991882324 18.039390563964844 C 6.530611991882324 16.520606994628906 7.761829853057861 15.289392471313477 9.280611991882324 15.289392471313477 L 11.811223030090332 15.289392471313477 C 13.330005645751953 15.289392471313477 14.561223983764648 16.52060890197754 14.561223983764648 18.039392471313477 L 14.561223983764648 19.8507137298584 C 14.561223983764648 20.54106903076172 15.120867729187012 21.100711822509766 15.811223983764648 21.100711822509766 L 18.750001907348633 21.100711822509766 C 19.440357208251953 21.100711822509766 20 20.54106903076172 20 19.850711822509766 L 20 9.103738784790039 C 20 8.727614402770996 19.83063507080078 8.37148380279541 19.53887367248535 8.134111404418945 L 12.005008697509766 2.004672050476074 Z M 8.160531997680664 0.8891794085502625 C 9.53779935836792 -0.2780326008796692 11.551254272460938 -0.29822856187820435 12.951658248901367 0.8411189913749695 L 20.485523223876953 6.970559120178223 C 21.127397537231445 7.492777347564697 21.5 8.276265144348145 21.5 9.103738784790039 L 21.5 19.850711822509766 C 21.5 21.36949348449707 20.26878547668457 22.600711822509766 18.750001907348633 22.600711822509766 L 15.811223983764648 22.600711822509766 C 14.292442321777344 22.600711822509766 13.061223983764648 21.369497299194336 13.061223983764648 19.8507137298584 L 13.061223983764648 18.039392471313477 C 13.061223983764648 17.349037170410156 12.501579284667969 16.789392471313477 11.811223030090332 16.789392471313477 L 9.280611991882324 16.789392471313477 C 8.59025526046753 16.789392471313477 8.030611991882324 17.349035263061523 8.030611991882324 18.039390563964844 L 8.030611991882324 19.850711822509766 C 8.030611991882324 21.369495391845703 6.799393653869629 22.600711822509766 5.280611038208008 22.600711822509766 L 2.75 22.600711822509766 C 1.231217384338379 22.600711822509766 0 21.369495391845703 0 19.850711822509766 L 0 9.079256057739258 C 0 8.271086692810059 0.3554931879043579 7.503828048706055 0.9720335006713867 6.981319904327393 L 8.160531997680664 0.8891794085502625 Z" fill="rgb(0,0,0)"/>
        </svg>