<svg 
          width="25.999998092651367" 
          height="26.000001907348633" fill="none" 
          xmlns="http://www.w3.org/2000/svg">
          <path d="M 1.8328133821487427 14.009820938110352 C 1.6499756425619125 13.796804443001747 1.500000021805171 13.498846054077148 1.5 13.000001907348633 C 1.499999978194829 12.501157760620117 1.6499755531549454 12.203200355172157 1.8328126668930054 11.990184783935547 C 2.040291056036949 11.74846075475216 2.3615012168884277 11.538512244820595 2.7832205295562744 11.372791290283203 C 3.699328660964966 11.012792557477951 4.280709773302078 10.213669776916504 4.572503089904785 9.5092191696167 C 4.864295929670334 8.804768562316895 5.018262892961502 7.8286051750183105 4.625034332275391 6.926260948181152 C 4.4440159648656845 6.5108771324157715 4.365340722724795 6.13529109954834 4.389556407928467 5.817656517028809 C 4.410895811393857 5.537745475769043 4.515534907579422 5.221008330583572 4.8682708740234375 4.868272304534912 C 5.221006840467453 4.51553675532341 5.53774356842041 4.410897267982364 5.817654132843018 4.389557838439941 C 6.135288715362549 4.365342127159238 6.510873794555664 4.444016948342323 6.926257133483887 4.625035285949707 C 7.828601360321045 5.018264263868332 8.804765701293945 4.864296942949295 9.50921630859375 4.572503566741943 C 10.213666915893555 4.28071066737175 11.012789756059647 3.6993298530578613 11.372788429260254 2.783221483230591 C 11.53851030766964 2.361501932144165 11.7484560161829 2.0402915626764297 11.990180969238281 1.832812786102295 C 12.20319651067257 1.6499754041433334 12.501153945922852 1.500000021805171 12.999998092651367 1.5 C 13.51516342163086 1.4999999774814086 13.818972572684288 1.650991216301918 14.029631614685059 1.8272639513015747 C 14.267136588692665 2.0260002464056015 14.472597107291222 2.333296298980713 14.634688377380371 2.7408876419067383 C 14.998536139726639 3.655813694000244 15.80223560333252 4.240024596452713 16.506790161132812 4.536157131195068 C 17.210773468017578 4.832049340009689 18.1939754486084 4.999048262834549 19.10527992248535 4.611454963684082 C 19.514863967895508 4.437252029776573 19.883268356323242 4.364116681739688 20.19459342956543 4.390543460845947 C 20.46996307373047 4.413918484002352 20.78293988108635 4.519485026597977 21.13172721862793 4.868271350860596 C 21.480512648820877 5.217057675123215 21.586078632622957 5.530034065246582 21.609453201293945 5.8054046630859375 C 21.63588143698871 6.116729736328125 21.56274603307247 6.485135078430176 21.38854217529297 6.894718647003174 C 21.000949889421463 7.806023120880127 21.16794964671135 8.789227485656738 21.463842391967773 9.493209838867188 C 21.75997546315193 10.19776439666748 22.344186782836914 11.001463919878006 23.259113311767578 11.365311622619629 C 23.666704177856445 11.527402862906456 23.97399900853634 11.732861533761024 24.1727352142334 11.970366477966309 C 24.349006667733192 12.18102453649044 24.499998070132776 12.484834671020508 24.499998092651367 13 C 24.499998114456538 13.498844146728516 24.35002325475216 13.796802505850792 24.167184829711914 14.009819030761719 C 23.959705367684364 14.251543059945107 23.63849449157715 14.46149156987667 23.216773986816406 14.627213478088379 C 22.30066680908203 14.987212210893631 21.719285935163498 15.786334037780762 21.427492141723633 16.49078369140625 C 21.1357002556324 17.195234298706055 20.981733292341232 18.171398162841797 21.374961853027344 19.07374382019043 C 21.555980697274208 19.48912811279297 21.63465498574078 19.864713668823242 21.610441207885742 20.182348251342773 C 21.589101804420352 20.46225929260254 21.484462708234787 20.778995484113693 21.13172721862793 21.131732940673828 C 20.77898982167244 21.48446848988533 20.46225357055664 21.58910750038922 20.182344436645508 21.61044692993164 C 19.864709854125977 21.634662641212344 19.489124298095703 21.555986389517784 19.073741912841797 21.374969482421875 C 18.171396255493164 20.981739073991776 17.195232391357422 21.135707825422287 16.490781784057617 21.427499771118164 C 15.786331176757812 21.719293624162674 14.98720833659172 22.300674438476562 14.627209663391113 23.216781616210938 C 14.461487784981728 23.638500213623047 14.251542076468468 23.95971105992794 14.009817123413086 24.16718864440918 C 13.796801581978798 24.350027099251747 13.498844146728516 24.500001885543462 13 24.500001907348633 C 12.484835624694824 24.50000192986718 12.181026473641396 24.349010452628136 11.970367431640625 24.172739028930664 C 11.732862457633018 23.974000945687294 11.527400985360146 23.666706085205078 11.365309715270996 23.25911521911621 C 11.001461952924728 22.344188690185547 10.197762489318848 21.75997731089592 9.493206977844238 21.46384620666504 C 8.789224624633789 21.16795352101326 7.8060221672058105 21.000955551862717 6.894718647003174 21.388547897338867 C 6.485135078430176 21.562751784920692 6.116730213165283 21.635887132957578 5.805405139923096 21.609460830688477 C 5.53003454208374 21.586084377020597 5.217058688402176 21.48051831126213 4.868271827697754 21.131732940673828 C 4.515536278486252 20.778995543718338 4.4108967911452055 20.46225929260254 4.389557361602783 20.182348251342773 C 4.365342127159238 19.864713668823242 4.4440174251794815 19.489126205444336 4.625035762786865 19.07374382019043 C 5.01826474070549 18.171398162841797 4.8642978966236115 17.195236206054688 4.572504997253418 16.490785598754883 C 4.2807120978832245 15.786334991455078 3.699331283569336 14.987212151288986 2.7832231521606445 14.627213478088379 C 2.3615031242370605 14.461491599678993 2.040292277932167 14.251544937491417 1.8328133821487427 14.009820938110352 Z M 2.2346138954162598 16.02328872680664 C 1.1073824167251587 15.58032613992691 7.474647389926758e-8 14.710001945495605 0 13.000001907348633 C -7.474639573956665e-8 11.290003776550293 1.1073802709579468 10.419677793979645 2.2346107959747314 9.976715087890625 C 3.063791275024414 9.650876015424728 3.605850249528885 8.34223222732544 3.249934196472168 7.525509834289551 C 2.7660831809043884 6.415214538574219 2.598458766937256 5.0167646408081055 3.8076107501983643 3.807612419128418 C 5.0167622566223145 2.5984606742858887 6.4152116775512695 2.7660842537879944 7.525506496429443 3.2499349117279053 C 8.342228412628174 3.6058509051799774 9.650873214006424 3.0637927055358887 9.976713180541992 2.234612226486206 C 10.419675767421722 1.1073813438415527 11.289999961853027 7.474639573956665e-8 12.999998092651367 0 C 14.716218948364258 -7.501839860424298e-8 15.586913049221039 1.076143503189087 16.028514862060547 2.1865897178649902 C 16.360183745622635 3.020597457885742 17.6922607421875 3.582401782274246 18.518198013305664 3.23111629486084 C 19.62133026123047 2.7619351744651794 20.999048233032227 2.6142725944519043 22.192386627197266 3.8076114654541016 C 23.385725021362305 5.000949859619141 23.238061845302582 6.37866735458374 22.76888084411621 7.481800079345703 C 22.417596846818924 8.307736873626709 22.979402542114258 9.63981631398201 23.81340980529785 9.971485137939453 C 24.923856735229492 10.413087785243988 25.99999801763297 11.28377914428711 25.999998092651367 13 C 25.99999816739784 14.710000038146973 24.892616271972656 15.58032602071762 23.765384674072266 16.02328872680664 C 22.936203002929688 16.349128752946854 22.39414593577385 17.657772064208984 22.75006103515625 18.4744930267334 C 23.233913481235504 19.584789276123047 23.401538848876953 20.983240127563477 22.192386627197266 22.192392349243164 C 20.98323631286621 23.40154457092285 19.58478546142578 23.233919084072113 18.474491119384766 22.75006866455078 C 17.65777015686035 22.394153624773026 16.349124878644943 22.93621063232422 16.023284912109375 23.765392303466797 C 15.580322325229645 24.892621994018555 14.70999813079834 26.000001832602237 13 26.000001907348633 C 11.283780097961426 26.00000198236699 10.413085997104645 24.923858642578125 9.97148323059082 23.813411712646484 C 9.639814347028732 22.97940444946289 8.307737827301025 22.417600601911545 7.481800556182861 22.76888656616211 C 6.378668308258057 23.23806768655777 5.000950336456299 23.385730743408203 3.8076117038726807 22.192392349243164 C 2.598459482192993 20.983240127563477 2.7660844922065735 19.584789276123047 3.2499356269836426 18.4744930267334 C 3.605851858854294 17.657772064208984 3.063793897628784 16.34912869334221 2.2346138954162598 16.02328872680664 ZM 12.999999046325684 15.500000953674316 C 14.380711078643799 15.500000953674316 15.499999046325684 14.380712985992432 15.499999046325684 13.000000953674316 C 15.499999046325684 11.61928915977478 14.380711078643799 10.500000953674316 12.999999046325684 10.500000953674316 C 11.619287252426147 10.500000953674316 10.499999046325684 11.61928915977478 10.499999046325684 13.000000953674316 C 10.499999046325684 14.380712985992432 11.619287252426147 15.500000953674316 12.999999046325684 15.500000953674316 Z M 12.999999046325684 17 C 15.209137916564941 17 17 15.209139823913574 17 13.000000953674316 C 17 10.790862083435059 15.209137916564941 9.000000953674316 12.999999046325684 9.000000953674316 C 10.790860176086426 9.000000953674316 8.999999046325684 10.790862083435059 8.999999046325684 13.000000953674316 C 8.999999046325684 15.209139823913574 10.790860176086426 17 12.999999046325684 17 Z" fill="rgb(0,0,0)"/>
        </svg>